<svg width="0" height="0" class="hidden">
  <symbol xmlns="http://www.w3.org/2000/svg" viewBox="0 0 24 24" id="mail">
    <path d="M5.125 4C4.2962 4 3.50134 4.32924 2.91529 4.91529C2.32924 5.50134 2 6.2962 2 7.125V16.875C2 17.7038 2.32924 18.4987 2.91529 19.0847C3.50134 19.6708 4.2962 20 5.125 20H18.875C19.7038 20 20.4987 19.6708 21.0847 19.0847C21.6708 18.4987 22 17.7038 22 16.875V7.125C22 6.2962 21.6708 5.50134 21.0847 4.91529C20.4987 4.32924 19.7038 4 18.875 4H5.125ZM3.25 7.125C3.25 6.62772 3.44754 6.15081 3.79917 5.79917C4.15081 5.44754 4.62772 5.25 5.125 5.25H18.875C19.3723 5.25 19.8492 5.44754 20.2008 5.79917C20.5525 6.15081 20.75 6.62772 20.75 7.125V7.57L12.001 12.175L3.25 7.5315V7.125ZM3.25 8.947L11.707 13.434C11.7969 13.4817 11.8971 13.5067 11.9989 13.5069C12.1007 13.5071 12.2009 13.4824 12.291 13.435L20.75 8.9825V16.875C20.75 17.3723 20.5525 17.8492 20.2008 18.2008C19.8492 18.5525 19.3723 18.75 18.875 18.75H5.125C4.62772 18.75 4.15081 18.5525 3.79917 18.2008C3.44754 17.8492 3.25 17.3723 3.25 16.875V8.947Z"></path>
  </symbol>
  <symbol xmlns="http://www.w3.org/2000/svg" viewBox="0 0 24 24" id="tg">
    <path fill-rule="evenodd" clip-rule="evenodd" d="M19.7767 4.42997C20.0238 4.32596 20.2943 4.29008 20.5599 4.32608C20.8256 4.36208 21.0768 4.46863 21.2873 4.63465C21.4979 4.80067 21.6601 5.02008 21.757 5.27005C21.854 5.52002 21.8822 5.79141 21.8387 6.05597L19.5707 19.813C19.3507 21.14 17.8947 21.901 16.6777 21.24C15.6597 20.687 14.1477 19.835 12.7877 18.946C12.1077 18.501 10.0247 17.076 10.2807 16.062C10.5007 15.195 14.0007 11.937 16.0007 9.99997C16.7857 9.23897 16.4277 8.79997 15.5007 9.49997C13.1987 11.238 9.50265 13.881 8.28065 14.625C7.20265 15.281 6.64065 15.393 5.96865 15.281C4.74265 15.077 3.60565 14.761 2.67765 14.376C1.42365 13.856 1.48465 12.132 2.67665 11.63L19.7767 4.42997Z"></path>
  </symbol>
  <symbol fill="none" xmlns="http://www.w3.org/2000/svg" viewBox="0 0 24 24" id="vk">
    <path d="M14 10.7491V7.0531C14 6.2201 13.849 6.0531 13.02 6.0531L10.67 6.0001C9.93803 6.0001 9.57203 6.0001 9.42403 6.2371C9.27603 6.4741 9.44003 6.7991 9.76703 7.4471C9.94903 7.8071 10.047 8.0681 10.047 8.4721V11.1321C10.047 11.9721 10.047 12.3931 9.72703 12.5181C9.40703 12.6421 9.14203 12.3601 8.61003 11.7961C7.31003 10.4121 6.63203 8.6841 6.18703 6.8001C6.09503 6.4101 6.04903 6.2151 5.91103 6.1071C5.77303 5.9991 5.57603 6.0001 5.18403 6.0001H2.98403C2.50203 6.0001 2.26103 6.0001 2.11003 6.1701C1.96003 6.3411 1.98903 6.5591 2.04703 6.9941C2.57503 10.9211 6.02803 17.3601 12.407 17.9741C13.537 18.0821 14 17.7771 14 16.5391C14 15.8371 13.985 14.7031 14.868 14.5541C15.331 14.4761 15.642 14.6411 16.159 15.0741C17.055 15.8261 17.525 16.7441 17.852 17.4411C18.069 17.9031 18.23 18.0001 18.74 18.0001H20.814C21.862 18.0001 22.147 17.7441 21.68 16.7601C21.1522 15.6566 20.405 14.6722 19.484 13.8671C18.848 13.3201 18.531 13.0471 18.514 12.8451C18.495 12.6441 18.728 12.3591 19.194 11.7891C20.094 10.6871 21.32 8.9581 21.892 7.1231C22.176 6.2131 21.909 6.0001 20.988 6.0001H19.125C18.222 6.0001 18.223 5.9691 18.01 6.9931C17.664 8.6541 16.532 10.2511 15.468 11.3381C14.963 11.8541 14.658 12.1651 14.343 12.0381C14.028 11.9111 14 11.5251 14 10.7491Z"  stroke-width="1.5" stroke-linecap="round" stroke-linejoin="round"></path>
  </symbol>
  <symbol xmlns="http://www.w3.org/2000/svg" viewBox="0 0 24 24" id="youTube">
    <path d="M9.9 0H8.55L7.65 3.45L6.75 0H5.25C5.55 0.9 5.85 1.65 6.15 2.55C6.6 3.75 6.9 4.8 6.9 5.4V9H8.25V5.4L9.9 0ZM13.5 6.75V4.5C13.5 3.75 13.35 3.3 13.05 2.85C12.75 2.4 12.3 2.25 11.7 2.25C11.1 2.25 10.65 2.55 10.35 3C10.05 3.3 9.9 3.75 9.9 4.5V6.9C9.9 7.65 10.05 8.1 10.35 8.4C10.65 8.85 11.1 9 11.7 9C12.3 9 12.75 8.7 13.05 8.25C13.35 8.1 13.5 7.5 13.5 6.75ZM12.3 7.05C12.3 7.65 12.15 7.95 11.7 7.95C11.25 7.95 11.1 7.65 11.1 7.05V4.2C11.1 3.6 11.25 3.3 11.7 3.3C12.15 3.3 12.3 3.6 12.3 4.2V7.05ZM18 9V2.25H16.8V7.35C16.5 7.8 16.35 7.95 16.05 7.95C15.9 7.95 15.75 7.8 15.75 7.65V2.25H14.55V7.5C14.55 7.95 14.55 8.25 14.7 8.55C14.7 8.85 15 9 15.45 9C15.9 9 16.35 8.7 16.8 8.25V9H18ZM18.6 15.75C18.15 15.75 18 16.05 18 16.65V17.25H19.2V16.65C19.2 16.05 19.05 15.75 18.6 15.75ZM14.25 15.75C14.1 15.75 13.8 15.9 13.65 16.05V20.1C13.8 20.25 14.1 20.4 14.25 20.4C14.55 20.4 14.7 20.1 14.7 19.5V16.65C14.7 16.05 14.55 15.75 14.25 15.75Z"></path>
    <path d="M21.5996 12.4492C21.2996 11.3992 20.3996 10.4992 19.4996 10.4992C17.0996 10.1992 14.5496 10.1992 11.9996 10.1992C9.44961 10.1992 7.04961 10.1992 4.49961 10.4992C3.59961 10.4992 2.69961 11.3992 2.39961 12.4492C2.09961 13.9492 2.09961 15.5992 2.09961 17.0992C2.09961 18.5992 2.09961 20.2492 2.39961 21.7492C2.69961 22.7992 3.44961 23.5492 4.49961 23.6992C7.04961 23.9992 9.44961 23.9992 11.9996 23.9992C14.5496 23.9992 16.9496 23.9992 19.4996 23.6992C20.5496 23.5492 21.4496 22.7992 21.5996 21.7492C21.8996 20.2492 21.8996 18.5992 21.8996 17.0992C21.8996 15.5992 21.8996 13.9492 21.5996 12.4492ZM7.79961 13.7992H6.29961V21.4492H4.94961V13.7992H3.59961V12.4492H7.79961V13.7992ZM11.3996 21.4492H10.1996V20.6992C9.74961 21.2992 9.29961 21.4492 8.84961 21.4492C8.39961 21.4492 8.24961 21.2992 8.09961 20.9992C8.09961 20.8492 7.94961 20.5492 7.94961 19.9492V14.6992H9.14961V19.9492C9.14961 20.0992 9.29961 20.2492 9.44961 20.2492C9.74961 20.2492 9.89961 20.0992 10.1996 19.6492V14.6992H11.3996V21.4492ZM15.8996 19.3492C15.8996 19.9492 15.8996 20.3992 15.7496 20.6992C15.5996 21.1492 15.2996 21.4492 14.8496 21.4492C14.3996 21.4492 13.9496 21.1492 13.6496 20.6992V21.2992H12.4496V12.4492H13.6496V15.2992C14.0996 14.8492 14.3996 14.5492 14.8496 14.5492C15.2996 14.5492 15.5996 14.8492 15.7496 15.2992C15.8996 15.5992 15.8996 16.0492 15.8996 16.6492V19.3492ZM20.3996 18.2992H17.9996V19.4992C17.9996 20.0992 18.1496 20.3992 18.5996 20.3992C18.8996 20.3992 19.0496 20.2492 19.1996 19.9492V19.1992H20.3996V20.0992C20.3996 20.3992 20.2496 20.5492 20.0996 20.8492C19.7996 21.2992 19.3496 21.5992 18.5996 21.5992C17.9996 21.5992 17.5496 21.2992 17.0996 20.8492C16.7996 20.5492 16.6496 19.9492 16.6496 19.3492V17.0992C16.6496 16.3492 16.7996 15.8992 16.9496 15.5992C17.2496 15.1492 17.6996 14.8492 18.4496 14.8492C19.0496 14.8492 19.4996 15.1492 19.7996 15.5992C20.0996 15.8992 20.0996 16.4992 20.0996 17.0992V18.2992H20.3996Z"></path>
  </symbol>
</svg>