<svg width="23" height="23" viewBox="0 0 23 23" fill="none" xmlns="http://www.w3.org/2000/svg">
<path d="M2.875 5.75H4.79167H20.125" stroke="#A58AB2" stroke-linecap="round" stroke-linejoin="round"/>
<path d="M18.2077 5.7513V19.168C18.2077 19.6763 18.0057 20.1638 17.6463 20.5233C17.2869 20.8827 16.7993 21.0846 16.291 21.0846H6.70768C6.19935 21.0846 5.71184 20.8827 5.35239 20.5233C4.99295 20.1638 4.79102 19.6763 4.79102 19.168V5.7513M7.66602 5.7513V3.83464C7.66602 3.3263 7.86795 2.83879 8.2274 2.47935C8.58684 2.1199 9.07435 1.91797 9.58268 1.91797H13.416C13.9243 1.91797 14.4119 2.1199 14.7713 2.47935C15.1307 2.83879 15.3327 3.3263 15.3327 3.83464V5.7513" stroke="#A58AB2" stroke-linecap="round" stroke-linejoin="round"/>
<path d="M9.58398 10.543V16.293" stroke="#A58AB2" stroke-linecap="round" stroke-linejoin="round"/>
<path d="M13.416 10.543V16.293" stroke="#A58AB2" stroke-linecap="round" stroke-linejoin="round"/>
</svg>
