<svg width="24" height="24" viewBox="0 0 24 24" fill="none" xmlns="http://www.w3.org/2000/svg">
<path d="M5.125 4C4.2962 4 3.50134 4.32924 2.91529 4.91529C2.32924 5.50134 2 6.2962 2 7.125V16.875C2 17.7038 2.32924 18.4987 2.91529 19.0847C3.50134 19.6708 4.2962 20 5.125 20H18.875C19.7038 20 20.4987 19.6708 21.0847 19.0847C21.6708 18.4987 22 17.7038 22 16.875V7.125C22 6.2962 21.6708 5.50134 21.0847 4.91529C20.4987 4.32924 19.7038 4 18.875 4H5.125ZM3.25 7.125C3.25 6.62772 3.44754 6.15081 3.79917 5.79917C4.15081 5.44754 4.62772 5.25 5.125 5.25H18.875C19.3723 5.25 19.8492 5.44754 20.2008 5.79917C20.5525 6.15081 20.75 6.62772 20.75 7.125V7.57L12.001 12.175L3.25 7.5315V7.125ZM3.25 8.947L11.707 13.434C11.7969 13.4817 11.8971 13.5067 11.9989 13.5069C12.1007 13.5071 12.2009 13.4824 12.291 13.435L20.75 8.9825V16.875C20.75 17.3723 20.5525 17.8492 20.2008 18.2008C19.8492 18.5525 19.3723 18.75 18.875 18.75H5.125C4.62772 18.75 4.15081 18.5525 3.79917 18.2008C3.44754 17.8492 3.25 17.3723 3.25 16.875V8.947Z" fill="white"/>
</svg>
