<svg width="24" height="24" viewBox="0 0 24 24" fill="none" xmlns="http://www.w3.org/2000/svg">
<path d="M9.9 0H8.55L7.65 3.45L6.75 0H5.25C5.55 0.9 5.85 1.65 6.15 2.55C6.6 3.75 6.9 4.8 6.9 5.4V9H8.25V5.4L9.9 0ZM13.5 6.75V4.5C13.5 3.75 13.35 3.3 13.05 2.85C12.75 2.4 12.3 2.25 11.7 2.25C11.1 2.25 10.65 2.55 10.35 3C10.05 3.3 9.9 3.75 9.9 4.5V6.9C9.9 7.65 10.05 8.1 10.35 8.4C10.65 8.85 11.1 9 11.7 9C12.3 9 12.75 8.7 13.05 8.25C13.35 8.1 13.5 7.5 13.5 6.75ZM12.3 7.05C12.3 7.65 12.15 7.95 11.7 7.95C11.25 7.95 11.1 7.65 11.1 7.05V4.2C11.1 3.6 11.25 3.3 11.7 3.3C12.15 3.3 12.3 3.6 12.3 4.2V7.05ZM18 9V2.25H16.8V7.35C16.5 7.8 16.35 7.95 16.05 7.95C15.9 7.95 15.75 7.8 15.75 7.65V2.25H14.55V7.5C14.55 7.95 14.55 8.25 14.7 8.55C14.7 8.85 15 9 15.45 9C15.9 9 16.35 8.7 16.8 8.25V9H18ZM18.6 15.75C18.15 15.75 18 16.05 18 16.65V17.25H19.2V16.65C19.2 16.05 19.05 15.75 18.6 15.75ZM14.25 15.75C14.1 15.75 13.8 15.9 13.65 16.05V20.1C13.8 20.25 14.1 20.4 14.25 20.4C14.55 20.4 14.7 20.1 14.7 19.5V16.65C14.7 16.05 14.55 15.75 14.25 15.75Z" fill="white"/>
<path d="M21.5996 12.4492C21.2996 11.3992 20.3996 10.4992 19.4996 10.4992C17.0996 10.1992 14.5496 10.1992 11.9996 10.1992C9.44961 10.1992 7.04961 10.1992 4.49961 10.4992C3.59961 10.4992 2.69961 11.3992 2.39961 12.4492C2.09961 13.9492 2.09961 15.5992 2.09961 17.0992C2.09961 18.5992 2.09961 20.2492 2.39961 21.7492C2.69961 22.7992 3.44961 23.5492 4.49961 23.6992C7.04961 23.9992 9.44961 23.9992 11.9996 23.9992C14.5496 23.9992 16.9496 23.9992 19.4996 23.6992C20.5496 23.5492 21.4496 22.7992 21.5996 21.7492C21.8996 20.2492 21.8996 18.5992 21.8996 17.0992C21.8996 15.5992 21.8996 13.9492 21.5996 12.4492ZM7.79961 13.7992H6.29961V21.4492H4.94961V13.7992H3.59961V12.4492H7.79961V13.7992ZM11.3996 21.4492H10.1996V20.6992C9.74961 21.2992 9.29961 21.4492 8.84961 21.4492C8.39961 21.4492 8.24961 21.2992 8.09961 20.9992C8.09961 20.8492 7.94961 20.5492 7.94961 19.9492V14.6992H9.14961V19.9492C9.14961 20.0992 9.29961 20.2492 9.44961 20.2492C9.74961 20.2492 9.89961 20.0992 10.1996 19.6492V14.6992H11.3996V21.4492ZM15.8996 19.3492C15.8996 19.9492 15.8996 20.3992 15.7496 20.6992C15.5996 21.1492 15.2996 21.4492 14.8496 21.4492C14.3996 21.4492 13.9496 21.1492 13.6496 20.6992V21.2992H12.4496V12.4492H13.6496V15.2992C14.0996 14.8492 14.3996 14.5492 14.8496 14.5492C15.2996 14.5492 15.5996 14.8492 15.7496 15.2992C15.8996 15.5992 15.8996 16.0492 15.8996 16.6492V19.3492ZM20.3996 18.2992H17.9996V19.4992C17.9996 20.0992 18.1496 20.3992 18.5996 20.3992C18.8996 20.3992 19.0496 20.2492 19.1996 19.9492V19.1992H20.3996V20.0992C20.3996 20.3992 20.2496 20.5492 20.0996 20.8492C19.7996 21.2992 19.3496 21.5992 18.5996 21.5992C17.9996 21.5992 17.5496 21.2992 17.0996 20.8492C16.7996 20.5492 16.6496 19.9492 16.6496 19.3492V17.0992C16.6496 16.3492 16.7996 15.8992 16.9496 15.5992C17.2496 15.1492 17.6996 14.8492 18.4496 14.8492C19.0496 14.8492 19.4996 15.1492 19.7996 15.5992C20.0996 15.8992 20.0996 16.4992 20.0996 17.0992V18.2992H20.3996Z" fill="white"/>
</svg>
